# xmcd
#
# Track frame offsets:
#	150
#	16450
#	33630
#	48352
#	65425
#	76520
#	94220
#	107322
#	121497
#	137567
#
# Disc length: 2034 seconds
#
# Revision: 0
# Processed by: cddbd v1.5.2PL0 Copyright (c) Steve Scherf et al.
# Submitted via: audiograbber 1.83.01
#
DISCID=7707f00a
DTITLE=The Country Dance Kings - Country Dance Club USA - Denim Dancin'
DYEAR=1994
DGENRE=Country
TTITLE0=He Thinks He'll Keep Her
TTITLE1=Standing Outside the Fire
TTITLE2=No Doubt About It
TTITLE3=My Love
TTITLE4=If the Good Die Young
TTITLE5=I'd Like to Have That One Back
TTITLE6=Indian Outlaw
TTITLE7=Words by Heart
TTITLE8=Piece of My Heart
TTITLE9=(Who Says) You Can't Have It All
EXTD=
EXTT0=
EXTT1=
EXTT2=
EXTT3=
EXTT4=
EXTT5=
EXTT6=
EXTT7=
EXTT8=
EXTT9=
PLAYORDER=
